<svg aria-hidden="true" style="position: absolute; width: 0; height: 0; overflow: hidden;" version="1.1" xmlns="http://www.w3.org/2000/svg" xmlns:xlink="http://www.w3.org/1999/xlink">
<defs>
<symbol id="icon-times" viewBox="0 0 24 24">
<path d="M17.414 6.586c-0.78-0.781-2.048-0.781-2.828 0l-2.586 2.586-2.586-2.586c-0.78-0.781-2.048-0.781-2.828 0-0.781 0.781-0.781 2.047 0 2.828l2.585 2.586-2.585 2.586c-0.781 0.781-0.781 2.047 0 2.828 0.39 0.391 0.902 0.586 1.414 0.586s1.024-0.195 1.414-0.586l2.586-2.586 2.586 2.586c0.39 0.391 0.902 0.586 1.414 0.586s1.024-0.195 1.414-0.586c0.781-0.781 0.781-2.047 0-2.828l-2.585-2.586 2.585-2.586c0.781-0.781 0.781-2.047 0-2.828z"></path>
</symbol>
<symbol id="icon-phone" viewBox="0 0 24 24">
<path d="M23 16.92c0.016-0.714-0.236-1.404-0.673-1.943-0.46-0.566-1.129-0.967-1.925-1.080-0.8-0.098-1.695-0.314-2.586-0.646-0.433-0.159-0.893-0.218-1.344-0.174-0.663 0.064-1.307 0.349-1.819 0.855l-0.72 0.72c-1.77-1.117-3.36-2.667-4.583-4.589l0.726-0.726c0.322-0.33 0.563-0.726 0.707-1.156 0.212-0.632 0.214-1.336-0.039-2.011-0.289-0.753-0.518-1.644-0.644-2.595-0.104-0.714-0.456-1.345-0.963-1.804-0.539-0.486-1.256-0.779-2.027-0.771h-2.996c-0.088 0-0.182 0.004-0.273 0.012-0.824 0.075-1.542 0.478-2.033 1.066s-0.758 1.367-0.683 2.199c0.3 3.076 1.365 6.243 3.216 9.102 1.502 2.413 3.648 4.623 6.298 6.306 2.568 1.697 5.684 2.862 9.086 3.231 0.092 0.009 0.191 0.013 0.288 0.013 0.828-0.003 1.578-0.343 2.118-0.887s0.873-1.297 0.87-2.121zM21 16.92v3c0.001 0.28-0.109 0.53-0.29 0.712s-0.429 0.295-0.706 0.296c-3.149-0.336-5.961-1.391-8.263-2.912-2.428-1.543-4.359-3.537-5.702-5.694-1.697-2.62-2.655-5.481-2.924-8.238-0.024-0.268 0.064-0.526 0.229-0.724s0.403-0.33 0.678-0.355l3.088-0.005c0.271-0.003 0.507 0.094 0.687 0.256 0.17 0.154 0.288 0.366 0.323 0.608 0.142 1.072 0.408 2.117 0.757 3.025 0.081 0.216 0.080 0.447 0.010 0.658-0.049 0.145-0.131 0.281-0.242 0.395l-1.262 1.261c-0.324 0.324-0.379 0.814-0.162 1.201 1.584 2.785 3.839 4.957 6.381 6.378 0.397 0.222 0.882 0.144 1.195-0.166l1.27-1.27c0.166-0.164 0.377-0.257 0.598-0.279 0.152-0.015 0.31 0.005 0.459 0.060 1.022 0.381 2.070 0.636 3.034 0.754 0.241 0.034 0.462 0.166 0.615 0.355 0.147 0.181 0.231 0.412 0.226 0.682z"></path>
</symbol>
<symbol id="icon-thumbs-down" viewBox="0 0 24 24">
<path d="M11 15c0-0.552-0.448-1-1-1h-5.679c-0.065-0.002-0.153-0.011-0.153-0.011-0.273-0.041-0.502-0.188-0.655-0.396s-0.225-0.47-0.184-0.742l1.38-8.998c0.037-0.239 0.156-0.448 0.325-0.6 0.179-0.161 0.415-0.256 0.686-0.253h10.28v9.788l-3.608 8.118c-0.307-0.098-0.582-0.268-0.806-0.492-0.363-0.363-0.586-0.861-0.586-1.414zM9 16v3c0 1.104 0.449 2.106 1.172 2.828s1.724 1.172 2.828 1.172c0.405 0 0.754-0.241 0.914-0.594l4-9c0.060-0.134 0.087-0.275 0.086-0.406v-11c0-0.552-0.448-1-1-1h-11.28c-0.767-0.009-1.482 0.281-2.021 0.763-0.505 0.452-0.857 1.076-0.967 1.783l-1.38 9.002c-0.125 0.82 0.096 1.614 0.55 2.231s1.147 1.063 1.965 1.187c0.165 0.025 0.333 0.037 0.492 0.034zM17 3h2.67c0.361-0.006 0.674 0.119 0.912 0.332 0.213 0.191 0.364 0.45 0.418 0.746v6.787c-0.037 0.34-0.208 0.63-0.455 0.833-0.235 0.194-0.537 0.306-0.861 0.301l-2.684 0.001c-0.552 0-1 0.448-1 1s0.448 1 1 1h2.656c0.81 0.012 1.569-0.27 2.16-0.756 0.622-0.511 1.059-1.251 1.176-2.11 0.005-0.040 0.008-0.087 0.008-0.134v-7c0-0.042-0.003-0.089-0.009-0.137-0.111-0.803-0.505-1.51-1.075-2.020-0.6-0.537-1.397-0.858-2.246-0.842h-2.67c-0.552 0-1 0.448-1 1s0.448 1 1 1z"></path>
</symbol>
<symbol id="icon-arrow-up-right" viewBox="0 0 24 24">
<path d="M7 8h7.586l-8.293 8.293c-0.391 0.391-0.391 1.024 0 1.414s1.024 0.391 1.414 0l8.293-8.293v7.586c0 0.552 0.448 1 1 1s1-0.448 1-1v-10c0-0.136-0.027-0.265-0.076-0.383s-0.121-0.228-0.216-0.323c-0.001-0.001-0.001-0.001-0.002-0.002-0.092-0.092-0.202-0.166-0.323-0.216-0.118-0.049-0.247-0.076-0.383-0.076h-10c-0.552 0-1 0.448-1 1s0.448 1 1 1z"></path>
</symbol>
<symbol id="icon-help-circle" viewBox="0 0 24 24">
<path d="M23 12c0-3.037-1.232-5.789-3.222-7.778s-4.741-3.222-7.778-3.222-5.789 1.232-7.778 3.222-3.222 4.741-3.222 7.778 1.232 5.789 3.222 7.778 4.741 3.222 7.778 3.222 5.789-1.232 7.778-3.222 3.222-4.741 3.222-7.778zM21 12c0 2.486-1.006 4.734-2.636 6.364s-3.878 2.636-6.364 2.636-4.734-1.006-6.364-2.636-2.636-3.878-2.636-6.364 1.006-4.734 2.636-6.364 3.878-2.636 6.364-2.636 4.734 1.006 6.364 2.636 2.636 3.878 2.636 6.364zM10.033 9.332c0.183-0.521 0.559-0.918 1.022-1.14s1.007-0.267 1.528-0.083c0.458 0.161 0.819 0.47 1.050 0.859 0.183 0.307 0.284 0.665 0.286 1.037 0 0.155-0.039 0.309-0.117 0.464-0.080 0.16-0.203 0.325-0.368 0.49-0.709 0.709-1.831 1.092-1.831 1.092-0.524 0.175-0.807 0.741-0.632 1.265s0.741 0.807 1.265 0.632c0 0 1.544-0.506 2.613-1.575 0.279-0.279 0.545-0.614 0.743-1.010 0.2-0.4 0.328-0.858 0.328-1.369-0.004-0.731-0.204-1.437-0.567-2.049-0.463-0.778-1.19-1.402-2.105-1.724-1.042-0.366-2.135-0.275-3.057 0.167s-1.678 1.238-2.044 2.28c-0.184 0.521 0.090 1.092 0.611 1.275s1.092-0.091 1.275-0.611zM12 18c0.552 0 1-0.448 1-1s-0.448-1-1-1-1 0.448-1 1 0.448 1 1 1z"></path>
</symbol>
<symbol id="icon-plus" viewBox="0 0 24 24">
<path d="M5 13h6v6c0 0.552 0.448 1 1 1s1-0.448 1-1v-6h6c0.552 0 1-0.448 1-1s-0.448-1-1-1h-6v-6c0-0.552-0.448-1-1-1s-1 0.448-1 1v6h-6c-0.552 0-1 0.448-1 1s0.448 1 1 1z"></path>
</symbol>
<symbol id="icon-box" viewBox="0 0 24 24">
<path d="M18.961 6.828l-6.961 4.027-6.961-4.027 6.456-3.689c0.112-0.064 0.232-0.105 0.355-0.124 0.218-0.034 0.445 0.003 0.654 0.124zM11.526 22.961c0.141 0.076 0.303 0.119 0.474 0.119 0.173 0 0.336-0.044 0.478-0.121 0.356-0.058 0.701-0.18 1.017-0.36l7.001-4.001c0.618-0.357 1.060-0.897 1.299-1.514 0.133-0.342 0.202-0.707 0.205-1.084v-8c0-0.478-0.113-0.931-0.314-1.334-0.022-0.071-0.052-0.14-0.091-0.207-0.046-0.079-0.1-0.149-0.162-0.21-0.031-0.043-0.064-0.086-0.097-0.127-0.23-0.286-0.512-0.528-0.831-0.715l-7.009-4.005c-0.61-0.352-1.3-0.465-1.954-0.364-0.363 0.057-0.715 0.179-1.037 0.363l-7.001 4.001c-0.383 0.221-0.699 0.513-0.941 0.85-0.060 0.060-0.114 0.13-0.159 0.207-0.039 0.068-0.070 0.138-0.092 0.21-0.040 0.080-0.076 0.163-0.108 0.246-0.132 0.343-0.201 0.708-0.204 1.078v8.007c0.001 0.71 0.248 1.363 0.664 1.878 0.23 0.286 0.512 0.528 0.831 0.715l7.009 4.005c0.324 0.187 0.67 0.307 1.022 0.362zM11 12.587v7.991l-6.495-3.711c-0.111-0.065-0.207-0.148-0.285-0.245-0.139-0.172-0.22-0.386-0.22-0.622v-7.462zM13 20.578v-7.991l7-4.049v7.462c-0.001 0.121-0.025 0.246-0.070 0.362-0.080 0.206-0.225 0.384-0.426 0.5z"></path>
</symbol>
<symbol id="icon-calendar" viewBox="0 0 24 24">
<path d="M7 2v1h-2c-0.828 0-1.58 0.337-2.121 0.879s-0.879 1.293-0.879 2.121v14c0 0.828 0.337 1.58 0.879 2.121s1.293 0.879 2.121 0.879h14c0.828 0 1.58-0.337 2.121-0.879s0.879-1.293 0.879-2.121v-14c0-0.828-0.337-1.58-0.879-2.121s-1.293-0.879-2.121-0.879h-2v-1c0-0.552-0.448-1-1-1s-1 0.448-1 1v1h-6v-1c0-0.552-0.448-1-1-1s-1 0.448-1 1zM20 9h-16v-3c0-0.276 0.111-0.525 0.293-0.707s0.431-0.293 0.707-0.293h2v1c0 0.552 0.448 1 1 1s1-0.448 1-1v-1h6v1c0 0.552 0.448 1 1 1s1-0.448 1-1v-1h2c0.276 0 0.525 0.111 0.707 0.293s0.293 0.431 0.293 0.707zM4 11h16v9c0 0.276-0.111 0.525-0.293 0.707s-0.431 0.293-0.707 0.293h-14c-0.276 0-0.525-0.111-0.707-0.293s-0.293-0.431-0.293-0.707z"></path>
</symbol>
<symbol id="icon-mail" viewBox="0 0 24 24">
<path d="M3 7.921l8.427 5.899c0.34 0.235 0.795 0.246 1.147 0l8.426-5.899v10.079c0 0.272-0.11 0.521-0.295 0.705s-0.433 0.295-0.705 0.295h-16c-0.272 0-0.521-0.11-0.705-0.295s-0.295-0.433-0.295-0.705zM1 5.983c0 0.010 0 0.020 0 0.030v11.987c0 0.828 0.34 1.579 0.88 2.12s1.292 0.88 2.12 0.88h16c0.828 0 1.579-0.34 2.12-0.88s0.88-1.292 0.88-2.12v-11.988c0-0.010 0-0.020 0-0.030-0.005-0.821-0.343-1.565-0.88-2.102-0.541-0.54-1.292-0.88-2.12-0.88h-16c-0.828 0-1.579 0.34-2.12 0.88-0.537 0.537-0.875 1.281-0.88 2.103zM20.894 5.554l-8.894 6.225-8.894-6.225c0.048-0.096 0.112-0.183 0.188-0.259 0.185-0.185 0.434-0.295 0.706-0.295h16c0.272 0 0.521 0.11 0.705 0.295 0.076 0.076 0.14 0.164 0.188 0.259z"></path>
</symbol>
<symbol id="icon-attach_file" viewBox="0 0 24 24">
<path d="M16.5 6h1.5v11.484q0 2.297-1.594 3.914t-3.891 1.617-3.914-1.617-1.617-3.914v-12.469q0-1.641 1.195-2.836t2.836-1.195 2.813 1.195 1.172 2.836v10.5q0 1.031-0.727 1.758t-1.758 0.727-1.781-0.727-0.75-1.758v-9.516h1.5v9.516q0 0.422 0.305 0.703t0.727 0.281 0.703-0.281 0.281-0.703v-10.5q0-1.031-0.727-1.781t-1.758-0.75-1.781 0.75-0.75 1.781v12.469q0 1.641 1.195 2.836t2.836 1.195 2.813-1.195 1.172-2.836v-11.484z"></path>
</symbol>
<symbol id="icon-arrow_drop_down" viewBox="0 0 24 24">
<path d="M6.984 9.984h10.031l-5.016 5.016z"></path>
</symbol>
<symbol id="icon-group_add" viewBox="0 0 24 24">
<path d="M12.984 12.984q1.875 0 3.938 0.82t2.063 2.18v2.016h-12v-2.016q0-1.359 2.063-2.18t3.938-0.82zM19.641 13.172q1.734 0.281 3.047 1.008t1.313 1.805v2.016h-3v-2.016q0-1.594-1.359-2.813zM12.984 11.016q-1.219 0-2.109-0.891t-0.891-2.109 0.891-2.109 2.109-0.891 2.109 0.891 0.891 2.109-0.891 2.109-2.109 0.891zM18 11.016q-0.469 0-0.891-0.141 0.891-1.266 0.891-2.859t-0.891-2.859q0.422-0.141 0.891-0.141 1.219 0 2.109 0.891t0.891 2.109-0.891 2.109-2.109 0.891zM8.016 9.984v2.016h-3v3h-2.016v-3h-3v-2.016h3v-3h2.016v3h3z"></path>
</symbol>
<symbol id="icon-contact_phone" viewBox="0 0 24 24">
<path d="M17.859 14.016q-0.375-0.984-0.375-2.016t0.375-2.016h1.641l1.5-1.969-1.969-2.016q-0.844 0.656-1.664 1.828t-1.102 2.156-0.281 2.016 0.281 2.016 1.102 2.156 1.664 1.828l1.969-2.016-1.5-1.969h-1.641zM14.016 18v-0.984q0-1.359-2.063-2.227t-3.938-0.867-3.938 0.867-2.063 2.227v0.984h12zM8.016 6q-1.219 0-2.109 0.891t-0.891 2.109 0.891 2.109 2.109 0.891 2.109-0.891 0.891-2.109-0.891-2.109-2.109-0.891zM21.984 3q0.797 0 1.406 0.609t0.609 1.406v13.969q0 0.797-0.609 1.406t-1.406 0.609h-19.969q-0.797 0-1.406-0.609t-0.609-1.406v-13.969q0-0.797 0.609-1.406t1.406-0.609h19.969z"></path>
</symbol>
<symbol id="icon-user" viewBox="0 0 24 32">
<path d="M12 16c-6.625 0-12 5.375-12 12 0 2.211 1.789 4 4 4h16c2.211 0 4-1.789 4-4 0-6.625-5.375-12-12-12zM6 6c0-3.314 2.686-6 6-6s6 2.686 6 6c0 3.314-2.686 6-6 6s-6-2.686-6-6z"></path>
</symbol>
<symbol id="icon-address-book1" viewBox="0 0 32 32">
<path d="M29 32h-22c-0.552 0-1-0.447-1-1v-1h-3c-0.553 0-1-0.447-1-1v-2c0-0.553 0.447-1 1-1h3v-2h-3c-0.553 0-1-0.447-1-1v-2c0-0.553 0.447-1 1-1h3v-2h-3c-0.553 0-1-0.447-1-1v-2c0-0.553 0.447-1 1-1h3v-2h-3c-0.553 0-1-0.447-1-1v-2c0-0.553 0.447-1 1-1h3v-2h-3c-0.553 0-1-0.447-1-1v-2c0-0.553 0.447-1 1-1h3v-1c0-0.553 0.448-1 1-1h22c0.553 0 1 0.447 1 1v30c0 0.553-0.447 1-1 1zM6 3h-2c-0.553 0-1 0.447-1 1s0.447 1 1 1h2c0.553 0 1-0.447 1-1s-0.447-1-1-1zM6 9h-2c-0.553 0-1 0.447-1 1s0.447 1 1 1h2c0.553 0 1-0.447 1-1s-0.447-1-1-1zM6 15h-2c-0.553 0-1 0.447-1 1s0.447 1 1 1h2c0.553 0 1-0.447 1-1s-0.447-1-1-1zM6 21h-2c-0.553 0-1 0.447-1 1s0.447 1 1 1h2c0.553 0 1-0.447 1-1s-0.447-1-1-1zM6 27h-2c-0.553 0-1 0.447-1 1s0.447 1 1 1h2c0.553 0 1-0.447 1-1s-0.447-1-1-1zM24 20.875c0-1.705-2.118-2.317-4.912-2.573 0.116-0.071 0.222-0.188 0.327-0.302h-0.415c0.553 0 1-0.447 1-1v-6c0-0.553-0.447-1-1-1h-2c-0.553 0-1 0.447-1 1v6c0 0.553 0.447 1 1 1h-0.415c0.105 0.114 0.212 0.23 0.327 0.302-2.794 0.256-4.912 0.891-4.912 2.573v1.125h12v-1.125z"></path>
</symbol>
<symbol id="icon-grid" viewBox="0 0 32 32">
<path d="M12 18h-10c-1.105 0-2 0.895-2 2v10c0 1.105 0.894 2 2 2h10c1.105 0 2-0.895 2-2v-10c0-1.105-0.895-2-2-2zM10 28h-6v-6h6v6zM12 0h-10c-1.105 0-2 0.894-2 2v10c0 1.105 0.894 2 2 2h10c1.105 0 2-0.895 2-2v-10c0-1.105-0.895-2-2-2zM10 10h-6v-6h6v6zM30 18h-10c-1.105 0-2 0.895-2 2v10c0 1.105 0.895 2 2 2h10c1.105 0 2-0.895 2-2v-10c0-1.105-0.895-2-2-2zM28 28h-6v-6h6v6zM30 0h-10c-1.105 0-2 0.894-2 2v10c0 1.105 0.895 2 2 2h10c1.105 0 2-0.895 2-2v-10c0-1.105-0.895-2-2-2zM28 10h-6v-6h6v6z"></path>
</symbol>
<symbol id="icon-bullhorn" viewBox="0 0 32 32">
<path d="M32 13.414c0-6.279-1.837-11.373-4.109-11.413 0.009-0 0.018-0.001 0.027-0.001h-2.592c0 0-6.088 4.573-14.851 6.367-0.268 1.415-0.438 3.102-0.438 5.047s0.171 3.631 0.438 5.047c8.763 1.794 14.851 6.367 14.851 6.367h2.592c-0.009 0-0.018-0.001-0.027-0.001 2.272-0.040 4.109-5.134 4.109-11.413zM27.026 23.102c-0.293 0-0.61-0.304-0.773-0.486-0.395-0.439-0.775-1.124-1.1-1.979-0.727-1.913-1.127-4.478-1.127-7.223s0.4-5.309 1.127-7.223c0.325-0.855 0.705-1.54 1.1-1.979 0.163-0.182 0.48-0.486 0.773-0.486s0.61 0.304 0.773 0.486c0.395 0.439 0.775 1.124 1.1 1.979 0.727 1.913 1.127 4.479 1.127 7.223s-0.4 5.309-1.127 7.223c-0.325 0.855-0.705 1.54-1.1 1.979-0.163 0.181-0.48 0.486-0.773 0.486zM7.869 13.414c0-1.623 0.119-3.201 0.345-4.659-1.48 0.205-2.779 0.323-4.386 0.323-2.096 0-2.096 0-2.096 0l-1.733 2.959v2.755l1.733 2.959c0 0 0 0 2.096 0 1.606 0 2.905 0.118 4.386 0.323-0.226-1.458-0.345-3.036-0.345-4.659zM11.505 20.068l-4-0.766 2.558 10.048c0.132 0.52 0.648 0.782 1.146 0.583l3.705-1.483c0.498-0.199 0.698-0.749 0.444-1.221l-3.853-7.161zM27.026 17.148c-0.113 0-0.235-0.117-0.298-0.187-0.152-0.169-0.299-0.433-0.424-0.763-0.28-0.738-0.434-1.726-0.434-2.784s0.154-2.046 0.434-2.784c0.125-0.33 0.272-0.593 0.424-0.763 0.063-0.070 0.185-0.187 0.298-0.187s0.235 0.117 0.298 0.187c0.152 0.169 0.299 0.433 0.424 0.763 0.28 0.737 0.434 1.726 0.434 2.784s-0.154 2.046-0.434 2.784c-0.125 0.33-0.272 0.593-0.424 0.763-0.063 0.070-0.185 0.187-0.298 0.187z"></path>
</symbol>
<symbol id="icon-file-text2" viewBox="0 0 32 32">
<path d="M28.681 7.159c-0.694-0.947-1.662-2.053-2.724-3.116s-2.169-2.030-3.116-2.724c-1.612-1.182-2.393-1.319-2.841-1.319h-15.5c-1.378 0-2.5 1.121-2.5 2.5v27c0 1.378 1.122 2.5 2.5 2.5h23c1.378 0 2.5-1.122 2.5-2.5v-19.5c0-0.448-0.137-1.23-1.319-2.841zM24.543 5.457c0.959 0.959 1.712 1.825 2.268 2.543h-4.811v-4.811c0.718 0.556 1.584 1.309 2.543 2.268zM28 29.5c0 0.271-0.229 0.5-0.5 0.5h-23c-0.271 0-0.5-0.229-0.5-0.5v-27c0-0.271 0.229-0.5 0.5-0.5 0 0 15.499-0 15.5 0v7c0 0.552 0.448 1 1 1h7v19.5z"></path>
<path d="M23 26h-14c-0.552 0-1-0.448-1-1s0.448-1 1-1h14c0.552 0 1 0.448 1 1s-0.448 1-1 1z"></path>
<path d="M23 22h-14c-0.552 0-1-0.448-1-1s0.448-1 1-1h14c0.552 0 1 0.448 1 1s-0.448 1-1 1z"></path>
<path d="M23 18h-14c-0.552 0-1-0.448-1-1s0.448-1 1-1h14c0.552 0 1 0.448 1 1s-0.448 1-1 1z"></path>
</symbol>
<symbol id="icon-coin-dollar" viewBox="0 0 32 32">
<path d="M15 2c-8.284 0-15 6.716-15 15s6.716 15 15 15c8.284 0 15-6.716 15-15s-6.716-15-15-15zM15 29c-6.627 0-12-5.373-12-12s5.373-12 12-12c6.627 0 12 5.373 12 12s-5.373 12-12 12zM16 16v-4h4v-2h-4v-2h-2v2h-4v8h4v4h-4v2h4v2h2v-2h4l-0-8h-4zM14 16h-2v-4h2v4zM18 22h-2v-4h2v4z"></path>
</symbol>
<symbol id="icon-address-book2" viewBox="0 0 32 32">
<path d="M6 0v32h24v-32h-24zM18 8.010c2.203 0 3.99 1.786 3.99 3.99s-1.786 3.99-3.99 3.99-3.99-1.786-3.99-3.99 1.786-3.99 3.99-3.99v0zM24 24h-12v-2c0-2.209 1.791-4 4-4v0h4c2.209 0 4 1.791 4 4v2z"></path>
<path d="M2 2h3v6h-3v-6z"></path>
<path d="M2 10h3v6h-3v-6z"></path>
<path d="M2 18h3v6h-3v-6z"></path>
<path d="M2 26h3v6h-3v-6z"></path>
</symbol>
<symbol id="icon-stats-dots" viewBox="0 0 32 32">
<path d="M4 28h28v4h-32v-32h4zM9 26c-1.657 0-3-1.343-3-3s1.343-3 3-3c0.088 0 0.176 0.005 0.262 0.012l3.225-5.375c-0.307-0.471-0.487-1.033-0.487-1.638 0-1.657 1.343-3 3-3s3 1.343 3 3c0 0.604-0.179 1.167-0.487 1.638l3.225 5.375c0.086-0.007 0.174-0.012 0.262-0.012 0.067 0 0.133 0.003 0.198 0.007l5.324-9.316c-0.329-0.482-0.522-1.064-0.522-1.691 0-1.657 1.343-3 3-3s3 1.343 3 3c0 1.657-1.343 3-3 3-0.067 0-0.133-0.003-0.198-0.007l-5.324 9.316c0.329 0.481 0.522 1.064 0.522 1.691 0 1.657-1.343 3-3 3s-3-1.343-3-3c0-0.604 0.179-1.167 0.487-1.638l-3.225-5.375c-0.086 0.007-0.174 0.012-0.262 0.012s-0.176-0.005-0.262-0.012l-3.225 5.375c0.307 0.471 0.487 1.033 0.487 1.637 0 1.657-1.343 3-3 3z"></path>
</symbol>
<symbol id="icon-target" viewBox="0 0 32 32">
<path d="M32 14h-3.154c-0.864-5.57-5.276-9.982-10.846-10.846v-3.154h-4v3.154c-5.57 0.864-9.982 5.276-10.846 10.846h-3.154v4h3.154c0.864 5.57 5.276 9.982 10.846 10.846v3.154h4v-3.154c5.57-0.864 9.982-5.276 10.846-10.846h3.154v-4zM24.776 14h-3.118c-0.603-1.705-1.953-3.056-3.658-3.658v-3.118c3.36 0.765 6.010 3.416 6.776 6.776zM16 18c-1.105 0-2-0.895-2-2s0.895-2 2-2c1.105 0 2 0.895 2 2s-0.895 2-2 2zM14 7.224v3.118c-1.705 0.603-3.056 1.953-3.658 3.658h-3.118c0.765-3.36 3.416-6.010 6.776-6.776zM7.224 18h3.118c0.603 1.705 1.953 3.056 3.658 3.658v3.118c-3.36-0.765-6.010-3.416-6.776-6.776zM18 24.776v-3.118c1.705-0.603 3.056-1.953 3.658-3.658h3.118c-0.765 3.36-3.416 6.010-6.776 6.776z"></path>
</symbol>
<symbol id="icon-clipboard" viewBox="0 0 32 32">
<path d="M29 4h-9c0-2.209-1.791-4-4-4s-4 1.791-4 4h-9c-0.552 0-1 0.448-1 1v26c0 0.552 0.448 1 1 1h26c0.552 0 1-0.448 1-1v-26c0-0.552-0.448-1-1-1zM16 2c1.105 0 2 0.895 2 2s-0.895 2-2 2c-1.105 0-2-0.895-2-2s0.895-2 2-2zM28 30h-24v-24h4v3c0 0.552 0.448 1 1 1h14c0.552 0 1-0.448 1-1v-3h4v24z"></path>
<path d="M14 26.828l-6.414-7.414 1.828-1.828 4.586 3.586 8.586-7.586 1.829 1.828z"></path>
</symbol>
<symbol id="icon-arrow-up-right2" viewBox="0 0 32 32">
<path d="M7.414 27.414l16.586-16.586v7.172c0 1.105 0.895 2 2 2s2-0.895 2-2v-12c0-0.809-0.487-1.538-1.235-1.848-0.248-0.103-0.508-0.151-0.765-0.151v-0.001h-12c-1.105 0-2 0.895-2 2s0.895 2 2 2h7.172l-16.586 16.586c-0.391 0.39-0.586 0.902-0.586 1.414s0.195 1.024 0.586 1.414c0.781 0.781 2.047 0.781 2.828 0z"></path>
</symbol>
<symbol id="icon-puzzle" viewBox="0 0 35 32">
<path d="M20.042 3.907c0-1.945-1.559-3.907-5.042-3.907-3.067 0-5.129 1.57-5.129 3.907 0 1.364 0.552 1.986 0.917 2.398 0.193 0.217 0.271 0.315 0.271 0.413 0 0.162 0 0.26-0.558 0.282h-6.098c-2.345 0-4.403 1.869-4.403 4v3.732c0.038 0.944 0.571 1.531 1.392 1.531 0.467 0 0.813-0.267 1.149-0.526 0.45-0.345 0.959-0.737 1.959-0.737 1.696 0 3.5 1.402 3.5 4 0 2.629-1.828 4.462-3.469 4.462-0.99 0-1.508-0.429-1.966-0.807-0.343-0.284-0.697-0.578-1.174-0.578-0.82 0-1.354 0.587-1.392 1.551v4.102c0.001 2.235 2.1 4.27 4.404 4.27h6.129c0.928-0.038 1.527-0.585 1.527-1.396 0-0.487-0.277-0.8-0.522-1.076-0.328-0.369-0.666-0.75-0.666-1.734 0-1.766 1.604-2.907 4.085-2.907s4.086 1.141 4.086 2.907c0 0.984-0.339 1.365-0.666 1.734-0.245 0.276-0.523 0.589-0.523 1.076 0 0.822 0.585 1.356 1.548 1.395l3.941 0.001c2.152 0 3.656-1.677 3.656-4.078v-4.65c0.026-0.122 0.334-0.588 0.804-0.588 0.096 0 0.193 0.079 0.409 0.271 0.41 0.367 1.031 0.922 2.393 0.922 2.184-0.001 4.396-1.675 4.396-4.877 0-3.454-2.009-5-4-5-1.344 0-2.12 0.614-2.634 1.020-0.228 0.18-0.442 0.35-0.564 0.35-0.471 0-0.779-0.468-0.802-0.571-0.001-0.008-0.001-0.016-0.002-0.024v-3.583c0-2.429-1.538-4.192-3.656-4.192h-3.921c-0.013-0.001-0.026-0.002-0.040-0.003-0.528-0.020-0.528-0.117-0.528-0.279 0-0.098 0.078-0.195 0.271-0.413 0.365-0.411 0.918-1.034 0.918-2.398zM18.376 5.642c-0.245 0.276-0.523 0.59-0.523 1.077 0 0.55 0.251 1.212 1.471 1.277 0.023 0.003 0.046 0.004 0.070 0.004h3.948c1.744 0 2.658 1.606 2.658 3.192v3.633c0 0.036-0.007 0.071 0 0.105 0.092 0.611 0.842 1.439 1.802 1.439 0.47 0 0.816-0.274 1.185-0.565 0.476-0.377 1.017-0.804 2.013-0.804 1.822 0 3 1.57 3 4 0 2.664-1.761 3.876-3.396 3.876-0.979 0-1.359-0.339-1.727-0.667-0.276-0.246-0.589-0.525-1.075-0.525-0.96 0-1.711 0.829-1.802 1.44-0.007 0.034 0 0.069 0 0.105v4.694c0 1.531-0.823 3.077-2.658 3.077h-3.921c-0.568-0.023-0.568-0.285-0.568-0.396 0-0.097 0.078-0.195 0.271-0.413 0.365-0.412 0.918-1.034 0.918-2.398 0-1.945-1.572-3.907-5.086-3.907-3.041 0-5.085 1.57-5.085 3.907 0 1.364 0.552 1.986 0.918 2.398 0.192 0.217 0.271 0.315 0.271 0.413 0 0.112 0 0.374-0.548 0.396h-6.109c-1.717 0-3.403-1.62-3.403-3.27v-4.082c0.022-0.571 0.281-0.571 0.392-0.571 0.116 0 0.32 0.169 0.537 0.348 0.498 0.413 1.253 1.037 2.603 1.037 2.157 0 4.468-2.195 4.468-5.462 0-3.248-2.318-5-4.5-5-1.34 0-2.079 0.568-2.568 0.945-0.222 0.171-0.414 0.318-0.54 0.318-0.11 0-0.369 0-0.392-0.551v-3.712c0-1.768 1.794-3 3.403-3h6.115c0.016 0 0.031-0.001 0.047-0.002v0c1.235-0.046 1.494-0.722 1.494-1.28 0-0.487-0.277-0.8-0.522-1.076-0.328-0.369-0.666-0.75-0.666-1.735 0-1.739 1.659-2.907 4.129-2.907 2.455 0 4.042 1.141 4.042 2.907 0 0.984-0.339 1.366-0.666 1.735z"></path>
</symbol>
<symbol id="icon-alarm-clock" viewBox="0 0 32 32">
<path d="M27.229 14.775c-1.374-3.807-4.725-6.729-8.891-7.659 1.067-1.532 2.836-2.539 4.845-2.539 3.264 0 5.909 2.646 5.909 5.91 0 1.694-0.722 3.211-1.863 4.288zM15.864 4.799v3.716c5.67 0.231 10.199 4.888 10.199 10.614 0 2.392-0.799 4.592-2.13 6.367l2.464 4.269-2.047 1.183-2.109-3.654c-1.846 1.543-4.221 2.474-6.814 2.474-2.579 0-4.943-0.919-6.784-2.445l-2.165 3.747-2.047-1.183 2.516-4.356c-1.348-1.782-2.156-3.995-2.156-6.402 0-5.688 4.468-10.319 10.084-10.608v-3.722c-0.573-0.205-0.989-0.74-0.989-1.385 0-0.82 0.665-1.484 1.484-1.484s1.485 0.665 1.485 1.484c-0.001 0.645-0.417 1.18-0.991 1.385zM7.153 19.129c0 4.57 3.704 8.273 8.273 8.273s8.273-3.703 8.273-8.273c0-4.568-3.705-8.272-8.273-8.272s-8.273 3.704-8.273 8.272zM17.906 20.918h-2.969c-0.547 0-0.99-0.443-0.99-0.99v-3.959c0-0.547 0.443-0.99 0.99-0.99 0.546 0 0.989 0.443 0.989 0.99v2.969h1.979c0.547 0 0.99 0.443 0.99 0.99s-0.442 0.99-0.989 0.99zM3.772 14.775c-1.142-1.078-1.864-2.594-1.864-4.288 0-3.264 2.646-5.91 5.91-5.91 2.008 0 3.776 1.007 4.845 2.539-4.166 0.93-7.517 3.852-8.891 7.659z"></path>
</symbol>
<symbol id="icon-lamp" viewBox="0 0 32 32">
<path d="M17.747 14.017c-1.25 0.562-4.022-0.815-4.022-0.815-3.248-1.947 1.22 6.073 1.22 6.073s0.093 2.503 0.655 2.815c4.687-6.563 3.397-8.636 2.147-8.073zM16.060 20.24c-0.379 0-1.972-4.779-1.784-5.779 1.251 0.125 2.409 0.597 3.097 0.222 1.937-0.878-0.876 5.557-1.313 5.557zM19.952 23.947c0.115-7.305 4.046-10.116 4.046-14.466 0-3.712-2.54-8.45-7.87-8.45-5.329 0-8.126 4.533-8.126 8.484 0 4.436 3.993 7.224 3.993 14.478h4.043c0 0 3.798-0.046 3.914-0.046zM12.809 23.020c0-6.771-3.868-9.373-3.868-13.513 0-3.688 2.51-7.556 7.173-7.556s6.948 4.060 6.948 7.524c0 4.060-3.814 6.742-3.916 13.56-0.102 0-3.111-0.016-3.111-0.016h-3.226zM19.505 25.014h-7c-0.276 0-0.5 0.224-0.5 0.5s0.224 0.5 0.5 0.5h7c0.275 0 0.5-0.224 0.5-0.5s-0.225-0.5-0.5-0.5zM19.505 27.014h-7c-0.276 0-0.5 0.224-0.5 0.5s0.224 0.5 0.5 0.5h7c0.275 0 0.5-0.224 0.5-0.5s-0.225-0.5-0.5-0.5zM12.997 29.043c0 0 0 0.334 0 0.9s0.444 1.025 0.992 1.025h4.031c0.549 0 0.992-0.459 0.992-1.025s-0.062-0.9-0.062-0.9h-5.953z"></path>
</symbol>
<symbol id="icon-address-book" viewBox="0 0 32 32">
<path d="M27 17.938v-3h2v3h-2zM27 11h2v3h-2v-3zM27 7h2v3h-2v-3zM24 29h-18c-1.104 0-2-0.896-2-2h0.5c0.828 0 1.5-0.672 1.5-1.5s-0.672-1.5-1.5-1.5h-0.5v-1h0.5c0.828 0 1.5-0.672 1.5-1.5s-0.672-1.5-1.5-1.5h-0.5v-1h0.5c0.828 0 1.5-0.672 1.5-1.5s-0.672-1.5-1.5-1.5h-0.5v-1h0.5c0.828 0 1.5-0.672 1.5-1.5s-0.672-1.5-1.5-1.5h-0.5v-1h0.5c0.828 0 1.5-0.672 1.5-1.5s-0.672-1.5-1.5-1.5h-0.5v-3c0-1.104 0.896-2 2-2h18c0.738 0 1.376 0.404 1.723 1h-19.723c-0.553 0-1 0.447-1 1 0 0.552 0.447 1 1 1h20v21c0 1.104-0.896 2-2 2zM15.5 9.562c-1.208 0-2.188 1.287-2.188 2.875s0.979 2.875 2.188 2.875 2.188-1.287 2.188-2.875-0.98-2.875-2.188-2.875zM18.99 16.688c-0.539-0.359-2.091-0.598-2.091-0.598s-1.006 1.075-1.433 1.075c-0.428 0-1.434-1.075-1.434-1.075s-1.552 0.238-2.090 0.598c-0.539 0.358-0.777 2.261-0.777 2.261h8.615c0.001-0.001-0.157-1.84-0.79-2.261zM5 9.5c0 0.276-0.224 0.5-0.5 0.5h-1c-0.276 0-0.5-0.224-0.5-0.5s0.224-0.5 0.5-0.5h1c0.276 0 0.5 0.224 0.5 0.5zM3.5 13h1c0.276 0 0.5 0.224 0.5 0.5s-0.224 0.5-0.5 0.5h-1c-0.276 0-0.5-0.224-0.5-0.5s0.224-0.5 0.5-0.5zM3.5 17h1c0.276 0 0.5 0.224 0.5 0.5s-0.224 0.5-0.5 0.5h-1c-0.276 0-0.5-0.224-0.5-0.5s0.224-0.5 0.5-0.5zM3.5 21h1c0.276 0 0.5 0.224 0.5 0.5s-0.224 0.5-0.5 0.5h-1c-0.276 0-0.5-0.224-0.5-0.5s0.224-0.5 0.5-0.5zM3.5 25h1c0.276 0 0.5 0.224 0.5 0.5s-0.224 0.5-0.5 0.5h-1c-0.276 0-0.5-0.224-0.5-0.5s0.224-0.5 0.5-0.5z"></path>
</symbol>
<symbol id="icon-calendar1" viewBox="0 0 32 32">
<path d="M29.334 3h-4.334v-2c0-0.553-0.447-1-1-1s-1 0.447-1 1v2h-6v-2c0-0.553-0.448-1-1-1s-1 0.447-1 1v2h-6v-2c0-0.553-0.448-1-1-1s-1 0.447-1 1v2h-4.333c-1.473 0-2.667 1.193-2.667 2.666v23.667c0 1.473 1.194 2.667 2.667 2.667h26.667c1.473 0 2.666-1.194 2.666-2.667v-23.667c0-1.473-1.193-2.666-2.666-2.666zM30 29.333c0 0.368-0.299 0.667-0.666 0.667h-26.667c-0.368 0-0.667-0.299-0.667-0.667v-23.667c0-0.367 0.299-0.666 0.667-0.666h4.333v2c0 0.553 0.448 1 1 1s1-0.447 1-1v-2h6v2c0 0.553 0.448 1 1 1s1-0.447 1-1v-2h6v2c0 0.553 0.447 1 1 1s1-0.447 1-1v-2h4.334c0.367 0 0.666 0.299 0.666 0.666v23.667zM7 12h4v3h-4zM7 17h4v3h-4zM7 22h4v3h-4zM14 22h4v3h-4zM14 17h4v3h-4zM14 12h4v3h-4zM21 22h4v3h-4zM21 17h4v3h-4zM21 12h4v3h-4z"></path>
</symbol>
<symbol id="icon-pen-angled" viewBox="0 0 32 32">
<path d="M22.443 12.15l-11.286 11.3-2.606-2.606 11.292-11.294 2.6 2.6zM23.15 11.443l-2.599-2.599 1.727-1.728c0.391-0.391 1.024-0.388 1.417 0.003l1.18 1.177c0.392 0.391 0.395 1.025 0.005 1.416l-1.729 1.731zM7.904 21.611l2.495 2.495-3.135 0.617 0.64-3.113zM7 21l-1 5 5-1 14.58-14.58c0.784-0.784 0.786-2.054 0.010-2.83l-1.18-1.179c-0.779-0.779-2.037-0.783-2.83 0.010l-14.58 14.58z"></path>
</symbol>
<symbol id="icon-note" viewBox="0 0 32 32">
<path d="M5 11v14.999c0 1.099 0.893 2.001 1.994 2.001h14.006v-6.002c0-1.111 0.898-1.998 2.006-1.998h4.994v-9h-23zM5 10v-2.999c0-1.105 0.902-2.001 2.001-2.001h18.998c1.105 0 2.001 0.893 2.001 1.992v3.008h-23zM22 28v-5.997c0-0.554 0.451-1.003 0.991-1.003h5.009l-6 7z"></path>
</symbol>
<symbol id="icon-note-list" viewBox="0 0 32 32">
<path d="M5 11h23v9h-4.994c-1.108 0-2.006 0.887-2.006 1.998v6.002h-14.006c-1.101 0-1.994-0.902-1.994-2.001v-14.999zM5 10v-2.999c0-1.105 0.902-2.001 2.001-2.001h18.998c1.105 0 2.001 0.893 2.001 1.992v3.008h-23zM22 28v-5.997c0-0.554 0.451-1.003 0.991-1.003h5.009l-6 7zM13 18v1h7v-1h-7zM8 17v3h3v-3h-3zM9 18v1h1v-1h-1zM13 14v1h12v-1h-12zM8 13v3h3v-3h-3zM9 14v1h1v-1h-1zM13 22v1h6v-1h-6zM8 21v3h3v-3h-3zM9 22v1h1v-1h-1z"></path>
</symbol>
<symbol id="icon-note-list1" viewBox="0 0 32 32">
<path d="M21.5 28h-14.5c-1.105 0-2-0.902-2-2.001v-18.998c0-1.105 0.902-2.001 2.001-2.001h18.998c1.105 0 2.001 0.894 2.001 1.994v14.006l-6 7h-0.5zM6 11v15.001c0 0.56 0.451 0.999 1.007 0.999h13.993v-4.994c0-1.119 0.895-2.006 1.998-2.006h4.002v-9h-21zM6 10h21v-2.993c0-0.557-0.447-1.007-0.999-1.007h-19.003c-0.56 0-0.999 0.447-0.999 0.999v3.001zM22 26.5l4.7-5.5h-3.703c-0.546 0-0.997 0.452-0.997 1.009v4.491zM13 18v1h7v-1h-7zM8 17h3v3h-3v-3zM9 18v1h1v-1h-1zM13 14v1h12v-1h-12zM8 13h3v3h-3v-3zM9 14v1h1v-1h-1zM13 22v1h6v-1h-6zM8 21h3v3h-3v-3zM9 22v1h1v-1h-1z"></path>
</symbol>
<symbol id="icon-note-text" viewBox="0 0 32 32">
<path d="M5 11h23v9h-4.994c-1.108 0-2.006 0.887-2.006 1.998v6.002h-14.006c-1.101 0-1.994-0.902-1.994-2.001v-14.999zM5 10v-2.999c0-1.105 0.902-2.001 2.001-2.001h18.998c1.105 0 2.001 0.893 2.001 1.992v3.008h-23zM22 28v-5.997c0-0.554 0.451-1.003 0.991-1.003h5.009l-6 7zM8 14v1h17v-1h-17zM8 17v1h17v-1h-17zM8 20v1h11v-1h-11zM8 23v1h11v-1h-11z"></path>
</symbol>
<symbol id="icon-note-text1" viewBox="0 0 32 32">
<path d="M6 11v15.001c0 0.56 0.451 0.999 1.007 0.999h13.993v-4.994c0-1.119 0.895-2.006 1.998-2.006h4.002v-9h-21zM6 10h21v-2.993c0-0.557-0.447-1.007-0.999-1.007h-19.003c-0.56 0-0.999 0.447-0.999 0.999v3.001zM21.5 28h-14.5c-1.105 0-2-0.902-2-2.001v-18.998c0-1.105 0.902-2.001 2.001-2.001h18.998c1.105 0 2.001 0.894 2.001 1.994v14.006l-6 7h-0.5zM22 26.5l4.7-5.5h-3.703c-0.546 0-0.997 0.452-0.997 1.009v4.491zM8 14v1h17v-1h-17zM8 17v1h17v-1h-17zM8 20v1h11v-1h-11zM8 23v1h11v-1h-11z"></path>
</symbol>
<symbol id="icon-note1" viewBox="0 0 32 32">
<path d="M6 11v15.001c0 0.56 0.451 0.999 1.007 0.999h13.993v-4.994c0-1.119 0.895-2.006 1.998-2.006h4.002v-9h-21zM6 10h21v-2.993c0-0.557-0.447-1.007-0.999-1.007h-19.003c-0.56 0-0.999 0.447-0.999 0.999v3.001zM21.5 28h-14.5c-1.105 0-2-0.902-2-2.001v-18.998c0-1.105 0.902-2.001 2.001-2.001h18.998c1.105 0 2.001 0.894 2.001 1.994v14.006l-6 7h-0.5zM22 26.5l4.7-5.5h-3.703c-0.546 0-0.997 0.452-0.997 1.009v4.491z"></path>
</symbol>
<symbol id="icon-clipboard-checked" viewBox="0 0 32 32">
<path d="M13 5v-1.002c0-1.1 0.898-1.998 2.005-1.998h0.99c1.111 0 2.005 0.895 2.005 1.998v1.002h2.004c0.551 0 0.996 0.447 0.996 0.999v1.002c0 0.556-0.446 0.999-0.996 0.999h-9.009c-0.551 0-0.996-0.447-0.996-0.999v-1.002c0-0.556 0.446-0.999 0.996-0.999h2.004zM22 6h1.003c1.107 0 1.997 0.897 1.997 2.004v20.993c0 1.114-0.894 2.004-1.997 2.004h-15.005c-1.107 0-1.997-0.897-1.997-2.004v-20.993c0-1.114 0.894-2.004 1.997-2.004h1.003c0 0.002 0 0.003 0 0.005v0.99c0 1.107 0.894 2.005 2.003 2.005h8.994c1.106 0 2.003-0.894 2.003-2.005v-0.99c0-0.002 0-0.003 0-0.005v0 0zM15.5 5c0.276 0 0.5-0.224 0.5-0.5s-0.224-0.5-0.5-0.5c-0.276 0-0.5 0.224-0.5 0.5s0.224 0.5 0.5 0.5v0zM14.254 23.685l7.778-7.778-0.707-0.707-7.071 7.071-3.743-3.743-0.707 0.707 4.45 4.45z"></path>
</symbol>
<symbol id="icon-clipboard-checked1" viewBox="0 0 32 32">
<path d="M13 5v-1.002c0-1.1 0.898-1.998 2.005-1.998h0.99c1.111 0 2.005 0.895 2.005 1.998v1.002h2.004c0.551 0 0.996 0.447 0.996 0.999v1.002c0 0.556-0.446 0.999-0.996 0.999h-9.009c-0.551 0-0.996-0.447-0.996-0.999v-1.002c0-0.556 0.446-0.999 0.996-0.999h2.004zM12 4h-0.997c-1.104 0-2 0.891-2.003 2h-1.003c-1.103 0-1.997 0.89-1.997 2.004v20.993c0 1.107 0.891 2.004 1.997 2.004h15.005c1.103 0 1.997-0.89 1.997-2.004v-20.993c0-1.107-0.891-2.004-1.997-2.004h-1.003c-0.003-1.105-0.895-2-2.003-2h-0.997c-0.001-1.657-1.35-3-3.009-3h-0.982c-1.661 0-3.008 1.338-3.009 3v0 0zM22 7h1c0.545 0 1 0.449 1 1.003v20.994c0 0.564-0.448 1.003-1 1.003h-15c-0.545 0-1-0.449-1-1.003v-20.994c0-0.564 0.448-1.003 1-1.003h1c0.003 1.105 0.895 2 2.003 2h8.994c1.104 0 2-0.891 2.003-2v0 0zM15.5 5c0.276 0 0.5-0.224 0.5-0.5s-0.224-0.5-0.5-0.5c-0.276 0-0.5 0.224-0.5 0.5s0.224 0.5 0.5 0.5v0zM14.254 23.685l7.778-7.778-0.707-0.707-7.071 7.071-3.743-3.743-0.707 0.707 4.45 4.45z"></path>
</symbol>
<symbol id="icon-bullhorn1" viewBox="0 0 28 28">
<path d="M26 10c1.109 0 2 0.891 2 2s-0.891 2-2 2v6c0 1.094-0.906 2-2 2-2.781-2.312-7.266-5.484-12.688-5.938-1.859 0.625-2.5 2.797-1.281 4.047-1.094 1.797 0.313 3.063 1.969 4.359-0.969 1.906-5 1.937-6.438 0.609-0.906-2.781-2.25-5.563-1.156-9.078h-1.906c-1.375 0-2.5-1.125-2.5-2.5v-3c0-1.375 1.125-2.5 2.5-2.5h7.5c6 0 11-3.5 14-6 1.094 0 2 0.906 2 2v6zM24 19.437v-14.906c-4.078 3.125-8.031 4.922-12 5.359v4.219c3.969 0.438 7.922 2.203 12 5.328z"></path>
</symbol>
<symbol id="icon-marketo" viewBox="0 0 32 32">
<path fill="#5c4c9f" style="fill: var(--color1, #5c4c9f)" d="M21.528 0v32l8.179-6.515v-21.040zM17.724 25.011l-6.585 2.876v-25.105l6.585 1.949zM2.295 24.273l5.040-1.332v-16.024l-5.016-0.808z"></path>
</symbol>
<symbol id="icon-reload" viewBox="0 0 20 20">
<path d="M14.66 15.66c-1.448 1.45-3.449 2.346-5.66 2.346-4.418 0-8-3.582-8-8s3.582-8 8-8c4.416 0 7.996 3.578 8 7.993v0h-2c0-0.002 0-0.003 0-0.005 0-3.314-2.686-6-6-6s-6 2.686-6 6c0 3.314 2.686 6 6 6 1.656 0 3.154-0.671 4.24-1.755l-0 0 1.42 1.42zM12 10h8l-4 4-4-4z"></path>
</symbol>
<symbol id="icon-cheveron-down" viewBox="0 0 20 20">
<path d="M9.293 12.95l0.707 0.707 5.657-5.657-1.414-1.414-4.243 4.242-4.243-4.242-1.414 1.414z"></path>
</symbol>
<symbol id="icon-navigation-more" viewBox="0 0 20 20">
<path d="M4 12c-1.105 0-2-0.895-2-2s0.895-2 2-2v0c1.105 0 2 0.895 2 2s-0.895 2-2 2v0zM10 12c-1.105 0-2-0.895-2-2s0.895-2 2-2v0c1.105 0 2 0.895 2 2s-0.895 2-2 2v0zM16 12c-1.105 0-2-0.895-2-2s0.895-2 2-2v0c1.105 0 2 0.895 2 2s-0.895 2-2 2v0z"></path>
</symbol>
<symbol id="icon-magnifying-glass" viewBox="0 0 20 20">
<path d="M17.545 15.467l-3.779-3.779c0.57-0.935 0.898-2.035 0.898-3.21 0-3.417-2.961-6.377-6.378-6.377s-6.186 2.769-6.186 6.186c0 3.416 2.961 6.377 6.377 6.377 1.137 0 2.2-0.309 3.115-0.844l3.799 3.801c0.372 0.371 0.975 0.371 1.346 0l0.943-0.943c0.371-0.371 0.236-0.84-0.135-1.211zM4.004 8.287c0-2.366 1.917-4.283 4.282-4.283s4.474 2.107 4.474 4.474c0 2.365-1.918 4.283-4.283 4.283s-4.473-2.109-4.473-4.474z"></path>
</symbol>
<symbol id="icon-shop" viewBox="0 0 20 20">
<path d="M6.123 7.25l0.791-5.25h-4.114l-1.719 4.5c-0.053 0.16-0.081 0.326-0.081 0.5 0 1.104 1.15 2 2.571 2 1.31 0 2.393-0.764 2.552-1.75zM10 9c1.42 0 2.571-0.896 2.571-2 0-0.041-0.003-0.082-0.005-0.121l-0.509-4.879h-4.114l-0.51 4.875c-0.002 0.041-0.004 0.082-0.004 0.125 0 1.104 1.151 2 2.571 2zM15 10.046v3.954h-10v-3.948c-0.438 0.158-0.92 0.248-1.429 0.248-0.195 0-0.384-0.023-0.571-0.049v6.349c0 0.77 0.629 1.4 1.398 1.4h11.202c0.77 0 1.4-0.631 1.4-1.4v-6.348c-0.188 0.025-0.376 0.049-0.571 0.049-0.506-0.001-0.99-0.093-1.429-0.255zM18.92 6.5l-1.721-4.5h-4.113l0.79 5.242c0.154 0.99 1.237 1.758 2.553 1.758 1.42 0 2.571-0.896 2.571-2 0-0.174-0.028-0.34-0.080-0.5z"></path>
</symbol>
</defs>
</svg>
